<mxfile host="app.diagrams.net" modified="2023-09-18T07:26:10.637Z" agent="Mozilla/5.0 (Windows NT 10.0; Win64; x64) AppleWebKit/537.36 (KHTML, like Gecko) Chrome/116.0.0.0 Safari/537.36" etag="WaIOFkBexs0o7qVoDbgZ" version="21.7.5" type="device">
  <diagram name="Page-1" id="n1kF9VRi2PsePmxnw9ag">
    <mxGraphModel dx="1800" dy="1024" grid="0" gridSize="10" guides="1" tooltips="1" connect="1" arrows="1" fold="1" page="0" pageScale="1" pageWidth="850" pageHeight="1100" math="0" shadow="0">
      <root>
        <mxCell id="0" />
        <mxCell id="1" parent="0" />
        <mxCell id="vcbJySEalDSs4IVnKOD2-1" value="" style="ellipse;html=1;shape=endState;fillColor=#000000;strokeColor=#ff0000;" vertex="1" parent="1">
          <mxGeometry x="224.97000000000003" y="430" width="30" height="30" as="geometry" />
        </mxCell>
        <mxCell id="vcbJySEalDSs4IVnKOD2-2" value="" style="ellipse;html=1;shape=startState;fillColor=#000000;strokeColor=#ff0000;" vertex="1" parent="1">
          <mxGeometry x="64.97000000000003" y="40" width="30" height="30" as="geometry" />
        </mxCell>
        <mxCell id="vcbJySEalDSs4IVnKOD2-3" value="" style="edgeStyle=orthogonalEdgeStyle;html=1;verticalAlign=bottom;endArrow=open;endSize=8;strokeColor=#ff0000;rounded=0;" edge="1" source="vcbJySEalDSs4IVnKOD2-2" parent="1" target="vcbJySEalDSs4IVnKOD2-4">
          <mxGeometry relative="1" as="geometry">
            <mxPoint x="79.97000000000003" y="130" as="targetPoint" />
          </mxGeometry>
        </mxCell>
        <mxCell id="vcbJySEalDSs4IVnKOD2-6" value="" style="edgeStyle=orthogonalEdgeStyle;rounded=0;orthogonalLoop=1;jettySize=auto;html=1;" edge="1" parent="1" source="vcbJySEalDSs4IVnKOD2-4" target="vcbJySEalDSs4IVnKOD2-5">
          <mxGeometry relative="1" as="geometry" />
        </mxCell>
        <mxCell id="vcbJySEalDSs4IVnKOD2-4" value="Button Click&lt;br&gt;&quot;create Quiz&quot;" style="rounded=1;whiteSpace=wrap;html=1;fillColor=#f5f5f5;fontColor=#333333;strokeColor=#666666;" vertex="1" parent="1">
          <mxGeometry x="19.970000000000027" y="130" width="120" height="60" as="geometry" />
        </mxCell>
        <mxCell id="vcbJySEalDSs4IVnKOD2-10" value="" style="edgeStyle=orthogonalEdgeStyle;rounded=0;orthogonalLoop=1;jettySize=auto;html=1;" edge="1" parent="1" source="vcbJySEalDSs4IVnKOD2-5" target="vcbJySEalDSs4IVnKOD2-9">
          <mxGeometry relative="1" as="geometry" />
        </mxCell>
        <mxCell id="vcbJySEalDSs4IVnKOD2-5" value="Fill in the gaps&lt;br&gt;(topic, q &amp;amp; a)&amp;nbsp;" style="rounded=1;whiteSpace=wrap;html=1;fillColor=#f5f5f5;fontColor=#333333;strokeColor=#666666;" vertex="1" parent="1">
          <mxGeometry x="19.970000000000027" y="230" width="120" height="60" as="geometry" />
        </mxCell>
        <mxCell id="vcbJySEalDSs4IVnKOD2-12" style="edgeStyle=orthogonalEdgeStyle;rounded=0;orthogonalLoop=1;jettySize=auto;html=1;exitX=0;exitY=0.5;exitDx=0;exitDy=0;entryX=0.006;entryY=0.447;entryDx=0;entryDy=0;entryPerimeter=0;" edge="1" parent="1" source="vcbJySEalDSs4IVnKOD2-9" target="vcbJySEalDSs4IVnKOD2-5">
          <mxGeometry relative="1" as="geometry" />
        </mxCell>
        <mxCell id="vcbJySEalDSs4IVnKOD2-13" value="no" style="edgeLabel;html=1;align=center;verticalAlign=middle;resizable=0;points=[];" vertex="1" connectable="0" parent="vcbJySEalDSs4IVnKOD2-12">
          <mxGeometry x="-0.7527" relative="1" as="geometry">
            <mxPoint x="1" as="offset" />
          </mxGeometry>
        </mxCell>
        <mxCell id="vcbJySEalDSs4IVnKOD2-15" value="" style="edgeStyle=orthogonalEdgeStyle;rounded=0;orthogonalLoop=1;jettySize=auto;html=1;" edge="1" parent="1" source="vcbJySEalDSs4IVnKOD2-9" target="vcbJySEalDSs4IVnKOD2-14">
          <mxGeometry relative="1" as="geometry" />
        </mxCell>
        <mxCell id="vcbJySEalDSs4IVnKOD2-16" value="yes" style="edgeLabel;html=1;align=center;verticalAlign=middle;resizable=0;points=[];" vertex="1" connectable="0" parent="vcbJySEalDSs4IVnKOD2-15">
          <mxGeometry x="-0.6369" relative="1" as="geometry">
            <mxPoint x="14" as="offset" />
          </mxGeometry>
        </mxCell>
        <mxCell id="vcbJySEalDSs4IVnKOD2-9" value="done?" style="rhombus;whiteSpace=wrap;html=1;rounded=1;fillColor=#f8cecc;strokeColor=#b85450;" vertex="1" parent="1">
          <mxGeometry x="39.97000000000003" y="330" width="80" height="80" as="geometry" />
        </mxCell>
        <mxCell id="vcbJySEalDSs4IVnKOD2-17" style="edgeStyle=orthogonalEdgeStyle;rounded=0;orthogonalLoop=1;jettySize=auto;html=1;entryX=0.498;entryY=0.187;entryDx=0;entryDy=0;entryPerimeter=0;" edge="1" parent="1" source="vcbJySEalDSs4IVnKOD2-14" target="vcbJySEalDSs4IVnKOD2-1">
          <mxGeometry relative="1" as="geometry" />
        </mxCell>
        <mxCell id="vcbJySEalDSs4IVnKOD2-14" value="save quiz" style="whiteSpace=wrap;html=1;rounded=1;fillColor=#f5f5f5;fontColor=#333333;strokeColor=#666666;" vertex="1" parent="1">
          <mxGeometry x="179.97000000000003" y="340" width="120" height="60" as="geometry" />
        </mxCell>
        <mxCell id="vcbJySEalDSs4IVnKOD2-18" value="create Quiz" style="text;html=1;align=center;verticalAlign=middle;resizable=0;points=[];autosize=1;strokeColor=none;fillColor=none;" vertex="1" parent="1">
          <mxGeometry x="-10" y="18" width="80" height="30" as="geometry" />
        </mxCell>
        <mxCell id="vcbJySEalDSs4IVnKOD2-19" value="" style="ellipse;html=1;shape=startState;fillColor=#000000;strokeColor=#ff0000;" vertex="1" parent="1">
          <mxGeometry x="490" y="40" width="30" height="30" as="geometry" />
        </mxCell>
        <mxCell id="vcbJySEalDSs4IVnKOD2-20" value="" style="edgeStyle=orthogonalEdgeStyle;html=1;verticalAlign=bottom;endArrow=open;endSize=8;strokeColor=#ff0000;rounded=0;entryX=0.5;entryY=0;entryDx=0;entryDy=0;" edge="1" source="vcbJySEalDSs4IVnKOD2-19" parent="1" target="vcbJySEalDSs4IVnKOD2-22">
          <mxGeometry relative="1" as="geometry">
            <mxPoint x="505" y="130" as="targetPoint" />
          </mxGeometry>
        </mxCell>
        <mxCell id="vcbJySEalDSs4IVnKOD2-21" value="play Quiz" style="text;html=1;align=center;verticalAlign=middle;resizable=0;points=[];autosize=1;strokeColor=none;fillColor=none;" vertex="1" parent="1">
          <mxGeometry x="415" y="18" width="70" height="30" as="geometry" />
        </mxCell>
        <mxCell id="vcbJySEalDSs4IVnKOD2-24" value="" style="edgeStyle=orthogonalEdgeStyle;rounded=0;orthogonalLoop=1;jettySize=auto;html=1;" edge="1" parent="1" source="vcbJySEalDSs4IVnKOD2-22" target="vcbJySEalDSs4IVnKOD2-23">
          <mxGeometry relative="1" as="geometry" />
        </mxCell>
        <mxCell id="vcbJySEalDSs4IVnKOD2-22" value="Button click&amp;nbsp;&lt;br&gt;&quot;study&quot;" style="rounded=1;whiteSpace=wrap;html=1;fillColor=#f5f5f5;fontColor=#333333;strokeColor=#666666;" vertex="1" parent="1">
          <mxGeometry x="445" y="130" width="120" height="60" as="geometry" />
        </mxCell>
        <mxCell id="vcbJySEalDSs4IVnKOD2-26" value="" style="edgeStyle=orthogonalEdgeStyle;rounded=0;orthogonalLoop=1;jettySize=auto;html=1;" edge="1" parent="1" source="vcbJySEalDSs4IVnKOD2-23" target="vcbJySEalDSs4IVnKOD2-25">
          <mxGeometry relative="1" as="geometry" />
        </mxCell>
        <mxCell id="vcbJySEalDSs4IVnKOD2-23" value="select the Quiz" style="whiteSpace=wrap;html=1;rounded=1;fillColor=#f5f5f5;fontColor=#333333;strokeColor=#666666;" vertex="1" parent="1">
          <mxGeometry x="445" y="230" width="120" height="60" as="geometry" />
        </mxCell>
        <mxCell id="vcbJySEalDSs4IVnKOD2-39" value="" style="edgeStyle=orthogonalEdgeStyle;rounded=0;orthogonalLoop=1;jettySize=auto;html=1;" edge="1" parent="1" source="vcbJySEalDSs4IVnKOD2-25" target="vcbJySEalDSs4IVnKOD2-38">
          <mxGeometry relative="1" as="geometry" />
        </mxCell>
        <mxCell id="vcbJySEalDSs4IVnKOD2-25" value="Play" style="whiteSpace=wrap;html=1;rounded=1;fillColor=#f5f5f5;fontColor=#333333;strokeColor=#666666;" vertex="1" parent="1">
          <mxGeometry x="445" y="340" width="120" height="60" as="geometry" />
        </mxCell>
        <mxCell id="vcbJySEalDSs4IVnKOD2-41" value="" style="edgeStyle=orthogonalEdgeStyle;rounded=0;orthogonalLoop=1;jettySize=auto;html=1;" edge="1" parent="1" source="vcbJySEalDSs4IVnKOD2-38" target="vcbJySEalDSs4IVnKOD2-40">
          <mxGeometry relative="1" as="geometry" />
        </mxCell>
        <mxCell id="vcbJySEalDSs4IVnKOD2-38" value="load Question and answers" style="whiteSpace=wrap;html=1;fillColor=#f5f5f5;strokeColor=#666666;fontColor=#333333;rounded=1;" vertex="1" parent="1">
          <mxGeometry x="445" y="453" width="120" height="60" as="geometry" />
        </mxCell>
        <mxCell id="vcbJySEalDSs4IVnKOD2-43" value="" style="edgeStyle=orthogonalEdgeStyle;rounded=0;orthogonalLoop=1;jettySize=auto;html=1;" edge="1" parent="1" source="vcbJySEalDSs4IVnKOD2-40" target="vcbJySEalDSs4IVnKOD2-42">
          <mxGeometry relative="1" as="geometry" />
        </mxCell>
        <mxCell id="vcbJySEalDSs4IVnKOD2-40" value="choose answer&amp;nbsp;" style="whiteSpace=wrap;html=1;fillColor=#f5f5f5;strokeColor=#666666;fontColor=#333333;rounded=1;" vertex="1" parent="1">
          <mxGeometry x="445" y="556" width="120" height="60" as="geometry" />
        </mxCell>
        <mxCell id="vcbJySEalDSs4IVnKOD2-52" style="edgeStyle=orthogonalEdgeStyle;rounded=0;orthogonalLoop=1;jettySize=auto;html=1;exitX=1;exitY=0.5;exitDx=0;exitDy=0;" edge="1" parent="1" source="vcbJySEalDSs4IVnKOD2-42" target="vcbJySEalDSs4IVnKOD2-50">
          <mxGeometry relative="1" as="geometry" />
        </mxCell>
        <mxCell id="vcbJySEalDSs4IVnKOD2-62" value="yes" style="edgeLabel;html=1;align=center;verticalAlign=middle;resizable=0;points=[];" vertex="1" connectable="0" parent="vcbJySEalDSs4IVnKOD2-52">
          <mxGeometry x="-0.2698" y="-1" relative="1" as="geometry">
            <mxPoint x="2" as="offset" />
          </mxGeometry>
        </mxCell>
        <mxCell id="vcbJySEalDSs4IVnKOD2-61" style="edgeStyle=orthogonalEdgeStyle;rounded=0;orthogonalLoop=1;jettySize=auto;html=1;entryX=0;entryY=0.5;entryDx=0;entryDy=0;" edge="1" parent="1" source="vcbJySEalDSs4IVnKOD2-42" target="vcbJySEalDSs4IVnKOD2-60">
          <mxGeometry relative="1" as="geometry">
            <Array as="points">
              <mxPoint x="504" y="916" />
            </Array>
          </mxGeometry>
        </mxCell>
        <mxCell id="vcbJySEalDSs4IVnKOD2-63" value="no" style="edgeLabel;html=1;align=center;verticalAlign=middle;resizable=0;points=[];" vertex="1" connectable="0" parent="vcbJySEalDSs4IVnKOD2-61">
          <mxGeometry x="-0.6875" y="-1" relative="1" as="geometry">
            <mxPoint as="offset" />
          </mxGeometry>
        </mxCell>
        <mxCell id="vcbJySEalDSs4IVnKOD2-42" value="true" style="rhombus;whiteSpace=wrap;html=1;fillColor=#f8cecc;strokeColor=#b85450;rounded=1;" vertex="1" parent="1">
          <mxGeometry x="465" y="697.25" width="80" height="80" as="geometry" />
        </mxCell>
        <mxCell id="vcbJySEalDSs4IVnKOD2-58" style="edgeStyle=orthogonalEdgeStyle;rounded=0;orthogonalLoop=1;jettySize=auto;html=1;exitX=1;exitY=0.5;exitDx=0;exitDy=0;" edge="1" parent="1" source="vcbJySEalDSs4IVnKOD2-44" target="vcbJySEalDSs4IVnKOD2-56">
          <mxGeometry relative="1" as="geometry" />
        </mxCell>
        <mxCell id="vcbJySEalDSs4IVnKOD2-44" value="Point++" style="whiteSpace=wrap;html=1;fillColor=#f5f5f5;strokeColor=#666666;rounded=1;fontColor=#333333;" vertex="1" parent="1">
          <mxGeometry x="640" y="647" width="120" height="60" as="geometry" />
        </mxCell>
        <mxCell id="vcbJySEalDSs4IVnKOD2-57" style="edgeStyle=orthogonalEdgeStyle;rounded=0;orthogonalLoop=1;jettySize=auto;html=1;exitX=1;exitY=0.5;exitDx=0;exitDy=0;" edge="1" parent="1" source="vcbJySEalDSs4IVnKOD2-46" target="vcbJySEalDSs4IVnKOD2-56">
          <mxGeometry relative="1" as="geometry" />
        </mxCell>
        <mxCell id="vcbJySEalDSs4IVnKOD2-46" value="State cheange" style="whiteSpace=wrap;html=1;fillColor=#f5f5f5;strokeColor=#666666;rounded=1;fontColor=#333333;" vertex="1" parent="1">
          <mxGeometry x="640" y="772" width="120" height="60" as="geometry" />
        </mxCell>
        <mxCell id="vcbJySEalDSs4IVnKOD2-54" style="edgeStyle=orthogonalEdgeStyle;rounded=0;orthogonalLoop=1;jettySize=auto;html=1;curved=0;entryX=0;entryY=0.5;entryDx=0;entryDy=0;" edge="1" parent="1" source="vcbJySEalDSs4IVnKOD2-50" target="vcbJySEalDSs4IVnKOD2-44">
          <mxGeometry relative="1" as="geometry" />
        </mxCell>
        <mxCell id="vcbJySEalDSs4IVnKOD2-55" style="edgeStyle=orthogonalEdgeStyle;rounded=0;orthogonalLoop=1;jettySize=auto;html=1;curved=0;entryX=0;entryY=0.5;entryDx=0;entryDy=0;" edge="1" parent="1" source="vcbJySEalDSs4IVnKOD2-50" target="vcbJySEalDSs4IVnKOD2-46">
          <mxGeometry relative="1" as="geometry" />
        </mxCell>
        <mxCell id="vcbJySEalDSs4IVnKOD2-50" value="" style="html=1;points=[[0,0,0,0,5],[0,1,0,0,-5],[1,0,0,0,5],[1,1,0,0,-5]];perimeter=orthogonalPerimeter;outlineConnect=0;targetShapes=umlLifeline;portConstraint=eastwest;newEdgeStyle={&quot;curved&quot;:0,&quot;rounded&quot;:0};fillColor=#000000;" vertex="1" parent="1">
          <mxGeometry x="576" y="647" width="7" height="180.5" as="geometry" />
        </mxCell>
        <mxCell id="vcbJySEalDSs4IVnKOD2-66" style="edgeStyle=orthogonalEdgeStyle;rounded=0;orthogonalLoop=1;jettySize=auto;html=1;curved=0;entryX=0;entryY=0.5;entryDx=0;entryDy=0;" edge="1" parent="1" source="vcbJySEalDSs4IVnKOD2-56" target="vcbJySEalDSs4IVnKOD2-65">
          <mxGeometry relative="1" as="geometry" />
        </mxCell>
        <mxCell id="vcbJySEalDSs4IVnKOD2-56" value="" style="html=1;points=[[0,0,0,0,5],[0,1,0,0,-5],[1,0,0,0,5],[1,1,0,0,-5]];perimeter=orthogonalPerimeter;outlineConnect=0;targetShapes=umlLifeline;portConstraint=eastwest;newEdgeStyle={&quot;curved&quot;:0,&quot;rounded&quot;:0};fillColor=#000000;" vertex="1" parent="1">
          <mxGeometry x="830" y="647" width="7" height="180.5" as="geometry" />
        </mxCell>
        <mxCell id="vcbJySEalDSs4IVnKOD2-67" style="edgeStyle=orthogonalEdgeStyle;rounded=0;orthogonalLoop=1;jettySize=auto;html=1;exitX=1;exitY=0.5;exitDx=0;exitDy=0;entryX=0.521;entryY=0.93;entryDx=0;entryDy=0;entryPerimeter=0;" edge="1" parent="1" source="vcbJySEalDSs4IVnKOD2-60" target="vcbJySEalDSs4IVnKOD2-65">
          <mxGeometry relative="1" as="geometry" />
        </mxCell>
        <mxCell id="vcbJySEalDSs4IVnKOD2-60" value="State cheange" style="whiteSpace=wrap;html=1;fillColor=#f5f5f5;strokeColor=#666666;rounded=1;fontColor=#333333;" vertex="1" parent="1">
          <mxGeometry x="640" y="886" width="120" height="60" as="geometry" />
        </mxCell>
        <mxCell id="vcbJySEalDSs4IVnKOD2-68" style="edgeStyle=orthogonalEdgeStyle;rounded=0;orthogonalLoop=1;jettySize=auto;html=1;entryX=1;entryY=0.5;entryDx=0;entryDy=0;" edge="1" parent="1" source="vcbJySEalDSs4IVnKOD2-65" target="vcbJySEalDSs4IVnKOD2-38">
          <mxGeometry relative="1" as="geometry">
            <mxPoint x="667" y="453" as="targetPoint" />
            <Array as="points">
              <mxPoint x="943" y="483" />
            </Array>
          </mxGeometry>
        </mxCell>
        <mxCell id="vcbJySEalDSs4IVnKOD2-69" value="yes" style="edgeLabel;html=1;align=center;verticalAlign=middle;resizable=0;points=[];" vertex="1" connectable="0" parent="vcbJySEalDSs4IVnKOD2-68">
          <mxGeometry x="-0.7285" y="2" relative="1" as="geometry">
            <mxPoint as="offset" />
          </mxGeometry>
        </mxCell>
        <mxCell id="vcbJySEalDSs4IVnKOD2-71" style="edgeStyle=orthogonalEdgeStyle;rounded=0;orthogonalLoop=1;jettySize=auto;html=1;exitX=1;exitY=0.5;exitDx=0;exitDy=0;entryX=0;entryY=0.5;entryDx=0;entryDy=0;" edge="1" parent="1" source="vcbJySEalDSs4IVnKOD2-65" target="vcbJySEalDSs4IVnKOD2-70">
          <mxGeometry relative="1" as="geometry" />
        </mxCell>
        <mxCell id="vcbJySEalDSs4IVnKOD2-72" value="no" style="edgeLabel;html=1;align=center;verticalAlign=middle;resizable=0;points=[];" vertex="1" connectable="0" parent="vcbJySEalDSs4IVnKOD2-71">
          <mxGeometry x="-0.0859" y="2" relative="1" as="geometry">
            <mxPoint as="offset" />
          </mxGeometry>
        </mxCell>
        <mxCell id="vcbJySEalDSs4IVnKOD2-65" value="Questions ?" style="rhombus;whiteSpace=wrap;html=1;fillColor=#f8cecc;strokeColor=#b85450;rounded=1;" vertex="1" parent="1">
          <mxGeometry x="903" y="697.25" width="80" height="80" as="geometry" />
        </mxCell>
        <mxCell id="vcbJySEalDSs4IVnKOD2-70" value="" style="ellipse;html=1;shape=endState;fillColor=#000000;strokeColor=#ff0000;" vertex="1" parent="1">
          <mxGeometry x="1041" y="722" width="30" height="30" as="geometry" />
        </mxCell>
      </root>
    </mxGraphModel>
  </diagram>
</mxfile>
